<svg xmlns="http://www.w3.org/2000/svg" xmlns:xlink="http://www.w3.org/1999/xlink" viewBox="0 0 765 534">
  <defs>
    <style>
      .cls-1 {
        fill: none;
      }

      .cls-2 {
        clip-path: url(#clip-path);
      }

      .cls-3 {
        fill: url(#Sunset);
      }

      .cls-4 {
        fill: #aea3c6;
      }

      .cls-5 {
        fill: #74577f;
      }

      .cls-6 {
        fill: url(#linear-gradient);
      }

      .cls-7 {
        fill: #fff;
      }

      .cls-8 {
        fill: #ffd400;
        stroke: #000;
        stroke-miterlimit: 10;
        stroke-width: 0.5px;
      }
    </style>
    <clipPath id="clip-path">
      <path class="cls-1" d="M157.19959,348.88543,120.677,360.97914C92.95872,343.66927,72.32327,323.75,61.88828,292.24031L33.1135,205.35,81.57155,189.3026l28.77479,86.89025a70.84206,70.84206,0,0,0,7.921,15.9193,70.42988,70.42988,0,0,0-3.38559-17.421L86.107,187.80076l48.69685-16.12659,28.77467,86.89035C174.09275,290.31288,169.34585,318.37289,157.19959,348.88543ZM243.3144,324.9872,204.0365,176.62569l-43.21,11.4397,39.278,148.36077Zm14.67045-3.82207-31.52335-150.203L296.93,156.17307c10.99021-2.30665,24.242,6.16139,26.54865,17.15235l7.41773,35.342c1.628,7.75808-2.09659,15.73914-7.27185,21.0999,6.8483,2.61283,13.55808,8.854,15.1411,16.39657l11.66877,55.599-43.96211,9.22639-10.80951-51.50468-4.74071.99511,10.8094,51.504Zm21.404-115.63779,2.71375,12.92991,4.74081-.99447-2.71311-12.93055Zm84.36412,7.29288,13.275,85.06866,44.38363-6.92669-13.275-85.06865,16.0999-2.51191-10.39-66.5754-76.36587,11.91708,10.39,66.57539Zm106.83282,71.84409,48.812-5.34633c11.16343-1.22291,21.12788-13.39031,19.88116-24.77267L525.01231,124.3067l-44.65371,4.8915,11.84477,108.13069-4.15835.45558L476.1996,129.65379l-44.43415,4.86768,14.26666,130.23862C447.27894,276.1417,459.42242,285.88722,470.58584,284.66431Zm131.13954-11.67967-44.60726,2.838-8.33306-130.965c-.71339-11.20711,9.57433-22.893,20.78144-23.60637l49.00227-3.11754c11.20711-.71338,23.11255,9.56066,23.82593,20.76777l8.33306,130.96567-44.82694,2.85226-1.78966-28.12685-4.17534.26527Zm-4.62815-72.73412,4.17534-.266-2.27931-35.81734-4.17545.26528Zm137.284,67.49885-1.99567-73.07447-23.10977.63083L707.081,114.96838,662.4,116.18851l4.19039,153.41193ZM239.48209,406.67506l-14.50471-55.56617-63.73819,16.63867,14.50471,55.56617,13.25659-3.46056L207.53391,490.855l37.0443-9.66981-18.53406-71.0018Zm96.95839,37.04227c1.78079,8.53074-4.71006,18.44745-13.24154,20.2276l-36.91615,7.70682c-8.367,1.74737-18.28308-4.74413-20.06452-13.27636l-16.91975-81.04934c-1.74663-8.36851,4.74423-18.28384,13.112-20.03121l36.91539-7.70553c8.53223-1.78144,18.44819,4.70867,20.19492,13.0758Zm-36.76535-9.61939L289.708,386.35327l-3.60933.7544,9.96648,47.74466ZM403.36862,331.77612l-33.75354,5.4699,13.2456,81.73549-3.14349.50877-13.2456-81.73549-33.58715,5.44256,15.95326,98.44657c1.3941,8.60453,11.0073,15.53666,19.44533,14.16851l36.897-5.97866c8.438-1.36687,15.53591-11.00794,14.14118-19.61108Zm96.762,62.27735,5.18615,42.935-33.94929,4.10037-4.80361-39.7731-3.66112.44191,4.80361,39.77311-33.78226,4.07986L419.91523,329.61951l54.4176-6.572c8.48716-1.02576,17.97969,6.27054,19.0047,14.7577l3.29557,27.29205c.72364,5.99095-2.62714,11.79907-6.90479,15.52427C494.7501,383.05365,499.42737,388.2289,500.13061,394.05347Zm-37.48567-25.18874-1.20646-9.98484-3.66112.44191,1.20645,9.985Zm44.28677-49.11281,10.66555,116.33346,33.88179-3.1059L540.8135,316.64741ZM624.4069,367.10647c-.56473-8.53073-9.65752-16.49685-18.18687-15.93212l-13.54783.89622-.33148-5.01709,24.75215-1.63823-2.24524-33.94993-41.81106,2.76491c-8.52935.56473-16.33858,9.48024-15.77524,18.00969l2.89861,43.81752c.56334,8.53084,9.48975,16.50774,18.02048,15.94312l13.54644-.89622.3206,4.84921-29.2686,1.93693,2.24663,33.95132,46.32612-3.065c8.53073-.56334,16.50635-9.48975,15.93073-18.187Zm70.70171-58.91621-58.79211,2.2288,1.94376,51.25574,12.22743-.4637,2.48254,65.49368,34.171-1.29585-2.48393-65.49239,12.39509-.47054Z"/>
    </clipPath>
    <linearGradient id="Sunset" x1="366.68888" y1="322.99886" x2="366.68888" y2="64.90849" gradientUnits="userSpaceOnUse">
      <stop offset="0" stop-color="#bf1a00"/>
      <stop offset="0.5293" stop-color="#ffb115"/>
      <stop offset="1" stop-color="#ffdee5"/>
    </linearGradient>
    <linearGradient id="linear-gradient" x1="367.12631" y1="511.71562" x2="367.12631" y2="350.74148" gradientUnits="userSpaceOnUse">
      <stop offset="0" stop-color="#87b8ed"/>
      <stop offset="0.26458" stop-color="#6994c2"/>
      <stop offset="0.41679" stop-color="#97b0e7"/>
      <stop offset="0.49443" stop-color="#5c85af"/>
      <stop offset="1" stop-color="#2f5170"/>
    </linearGradient>
  </defs>
  <title>VirtualTourist</title>
  <g id="Layer_3" data-name="Layer 3">
    <g class="cls-2">
      <g>
        <rect class="cls-3" x="-25.68558" y="64.90849" width="784.74894" height="258.09038"/>
        <path class="cls-4" d="M26.806,289.93874V279.003h6.99888V252.75722H39.054V238.75947l5.24915-10.49832,1.89553,2.77039,15.01842-1.74972,1.16648-1.89553,17.20557.87486V208.86843l2.62458-.58324,3.49944-12.53965h6.85306l-.43743-3.49944,15.74747-.14581,5.8324,1.31229.87486,1.89553,5.10335-.58324,4.66591,14.28937,2.47877.58324-1.60391,2.77039,1.02067,18.51786,5.97821-.14581v1.89553l5.24916,1.31229,4.22848-4.95754,2.62458,4.22849-.29162,9.91507,26.68321-.14581.58324,2.18715h6.99888l1.31229,1.31229-1.02067,1.74972.72905,37.47315L191.8628,282.065l.72905-25.07931-2.47877-5.10334,2.333-.29162.43743-2.18715.87486-4.81173,1.60391,3.20782,3.49944-.29162,1.02067-3.062,1.31229,3.35363,3.35362-.43743,1.31229-2.77039,1.31229,2.9162,3.35363-.14581.72905-2.9162,2.77039,1.60391h5.24916l-.43743,2.77039,3.93686,1.4581,4.95754.14581.14581-11.519,10.06088.14581,2.9162,2.18714-.29162,10.78994,1.74972.29162v7.72792l8.7486-.29162V269.817l31.49494.14581,3.20781,1.31229v7.58211l.14581,14.581,44.76365-.14581-.729-54.5329h2.47877l-.43743-6.99888,3.49943-.43743-.14581,2.333,4.3743-.43743.58324-1.89553,1.89553.29162.43743,2.62458,4.22849-.72905V231.469l2.04134.14581s.14581-48.99213.43742-49.42956a18.94071,18.94071,0,0,1,2.77039-1.89553l-.14581-21.72568,1.16648-1.74971,2.77039-.14581.729-8.60279,1.02067-1.60391,2.04134.29162.14581-17.49719,1.60391.14581,1.89553-3.64525-.43743-3.35362,1.16648-.43743-.29162-3.93687,2.18714-1.89553,2.62458,1.4581v4.52011l1.60391.58324-.43743,3.64524,1.89553,2.77039,1.02067.14581V147.045l2.333-.29162.14581,6.26983,6.85306-.14581,1.89553,1.02067.29162,2.333h3.93687l.729,24.05863,2.9162.87486.87486,48.40889h3.062l1.02067-1.31229,1.16648,1.89553,4.37429-2.04134.29162,43.15974,8.60279-.58324-.58324,3.791,31.05751,19.976,16.76814-6.41564L451.55025,255.236l-.43743-24.64188,3.79106-6.26983,2.04134-.14581,3.49944-6.70725,1.60391.29162,3.93686-6.99888h2.04134l-.14581-2.04134,3.062-3.64524-.29162-2.18715,1.89553-.29162,3.93687-6.56145,19.68433-.29162v7.87374l3.79106.14581v6.124l4.66592.58324v1.4581l10.06088-.87486,9.33184.87486v6.56145l11.8106,1.4581.729,2.333,8.60278.43743,1.60391,1.02066-.43743,1.31229,1.60391.29162.29162,1.60391-2.47877,3.79106.14581,10.64412,4.95754-1.4581,9.76926,3.64525L559.158,138.00482l8.01954-9.91508,51.32509.72905.29162,51.4709,54.53291-5.395,29.30779,3.49944.21871,12.90418h-3.49944l.21872,3.062,3.71815.43743-.21871,3.062-.43743,42.212,12.248.65615.43743,2.84329,12.68546.43743.43743,16.841,9.40474-6.34273,4.15558.43743L748.34632,259.1l3.062-1.31229,6.56145,4.3743-.43743,2.18714,3.062-.43743v11.15446l2.40586,1.09358.43743,28.65164.87486,2.62458,6.99888-.21871.21871,3.49944,16.1849.21871,6.124-4.81173,10.06088-.21871.43743-3.71815,11.15446-1.09358-.87486-19.46562,12.46675-.43743V394.047L-9.35487,395.10935l-1.02067-105.17061Z"/>
        <path class="cls-5" d="M-45.22411,265.58849l73.77981.29162,2.04134,3.20782v10.49831l10.20669-.58324-.29161-2.62458,35.286,1.16648h28.28713l5.24915,3.49944,4.3743,9.04021-2.333,3.20782.29162,4.95754h34.11952v-2.91624a17.30169,17.30169,0,0,1,8.457-11.95637l-.29161-3.20782h4.66591l2.04134-12.53965,1.4581,12.53965h5.54078l-.29163,4.08268a17.14661,17.14661,0,0,1,5.83241,6.99887h15.16422l2.9162-.29162.29162-6.99887,6.70726.58324v5.83239l3.20782,1.4581-.29162,3.49944,4.37429-.29162v-2.9162l1.16648-2.04134,10.78994.29162.87486,6.124,6.70725-.29162.29162-3.79106,5.8324-2.9162,5.24915,3.49944,3.20782,1.74972,7.58212-2.9162,4.08268,2.62458v8.7486h2.91619v13.70613h5.54078v6.41563h6.41564V291.83427l3.791-4.37429,9.33184-.29162,6.124-2.62458v-2.9162l3.20782-4.08268h18.37205l6.124-6.99887,8.31116,8.31116H335.923l3.49944,3.64525v4.66592l.87486,2.91619,7.58212-4.37429,19.53852-.58324h13.41452l-.29162-6.99888h22.1631v6.124l4.66592.29162v-10.2067l16.33071-2.333-.29162-7.87373,10.49831-1.16648L433.324,266.755l2.62458-1.16648L435.657,255.965l9.33184-.58324h9.62345l1.74972,10.49832,19.53853.87486V291.251l9.91507,1.16648v6.41564h12.248l-1.16648-4.95754h37.32734l9.62346-.87486,7.58211-1.4581V272.879l-2.9162-2.62457H553.763v-3.20782l11.37317.29162,3.49944-3.79106,7.2905.29162,9.33183-7.58212,16.33071-1.45809v-5.54078l13.70613-1.74972,7.58212,1.16648v4.95754l30.32846-.58324,13.41451,1.16648-.29162,3.20781,6.70726,3.79106v2.04134l15.74747,1.74972-2.333,3.79106.58325,72.61337c0-6.22131,97.98426-6.22131,97.98426,0v53.36639H-51.63975Z"/>
        <path class="cls-6" d="M-60.68,364.73923S98.54446,377.5705,135.8718,376.404s251.95952-5.24916,282.87122-6.41564S684.7003,351.908,684.7003,351.908l106.14961-1.16648,4.08268,14.581V511.71562H-60.68Z"/>
      </g>
    </g>
    <path class="cls-7" d="M704.164,118.04919l2.11292,77.33838a3,3,0,0,0,2.99731,2.91816c.02765,0,.0556-.00037.08337-.00116l20.11091-.549,1.83184,67.07678-61.793,1.68731-4.02649-147.41418,38.68317-1.05634m-84.48523,3.04938c9.37519,0,19.144,8.91266,19.722,17.99329l8.14258,127.97186-38.83918,2.47119L607.1051,244.402a3.00018,3.00018,0,0,0-2.99109-2.80969q-.09585,0-.193.00616l-4.17523.26526a3,3,0,0,0-2.80377,3.18445l1.59906,25.13293-38.61951,2.457L551.779,144.66687c-.28985-4.55347,1.59754-9.4978,5.17835-13.56537s8.246-6.56647,12.79956-6.85638l49.00274-3.11756c.30207-.01922.61127-.029.91913-.029m-22.58172,82.152q.09529,0,.191-.0061l4.17535-.26612a2.99987,2.99987,0,0,0,2.8031-3.18444l-2.27936-35.81739a3.00013,3.00013,0,0,0-2.99109-2.80957c-.0639,0-.12835.002-.193.00617l-4.17548.26526a2.99994,2.99994,0,0,0-2.80371,3.1845l2.27942,35.81824a3.00015,3.00015,0,0,0,2.99372,2.80945m-74.74024-75.63507,13.94,127.25641c1.04956,9.58209-7.64386,20.4143-17.22564,21.4638l-48.81183,5.34638a14.70357,14.70357,0,0,1-1.59436.08612c-9.29062,0-18.65689-8.26245-19.65073-17.33484l-13.94-127.25641,38.46985-4.21435,11.51868,105.14856a2.99957,2.99957,0,0,0,3.30889,2.65545l4.15836-.45562a3.00008,3.00008,0,0,0,2.65546-3.30884l-11.518-105.14856,38.68933-4.2381M411.345,140.23285,420.80981,200.88l-13.13565,2.04938a3.0001,3.0001,0,0,0-2.50164,3.42676L417.985,288.46069l-38.45548,6.00153-12.81244-82.10455a2.99984,2.99984,0,0,0-3.42663-2.50153l-12.91822,2.01593-9.4649-60.64722,70.43768-10.992M300.68353,158.79193c8.88535,0,18.16535,7.07929,19.85907,15.14966l7.41767,35.34192c1.48361,7.07-2.38184,14.14056-6.49411,18.40014a3,3,0,0,0,1.089,4.8866c6.58725,2.51325,12.046,8.35651,13.27444,14.20978l11.05255,52.6629-38.09012,7.99414-10.19336-48.56866a3,3,0,0,0-3.55224-2.31983l-4.74066.99512a3,3,0,0,0-2.31971,3.55219l10.19318,48.568-37.87456,7.949L230.01372,173.282l67.53245-14.17285a15.31184,15.31184,0,0,1,3.13736-.3172m-18.584,62.666a3.01667,3.01667,0,0,0,.619-.06452l4.74081-.99457a3,3,0,0,0,2.32019-3.55218l-2.7131-12.93054a2.99974,2.99974,0,0,0-3.55228-2.31989l-4.74145.99506a2.99991,2.99991,0,0,0-2.31983,3.55218l2.71375,12.93a3.00086,3.00086,0,0,0,2.93289,2.38446M132.8991,175.46527l27.83152,84.04242c9.05708,27.34833,7.33,53.42792-5.806,86.97089L121.076,357.68683C90.63779,338.44159,73.75282,318.524,64.73616,291.29724L36.90454,207.25476l42.7622-14.16113,27.8317,84.04242a73.562,73.562,0,0,0,8.25127,16.60754,3,3,0,0,0,5.51136-1.82507,73.8059,73.8059,0,0,0-3.53136-18.17047L89.898,189.70557l43.0011-14.2403m69.00512,4.82831,37.74233,142.56134-37.4097,9.90338L164.49442,190.19769l37.4098-9.90411M692.22449,311.3017l1.71637,45.26025-9.3974.35681a3,3,0,0,0-2.884,3.11157l2.3703,62.49451-28.17529,1.06842-2.3689-62.49579a2.99976,2.99976,0,0,0-2.99755-2.88629q-.05687,0-.1139.00214l-9.22967.35L639.428,313.30322l52.79645-2.00152m-80.17237,3.355,1.84937,27.96313-21.75885,1.44019a3,3,0,0,0-2.79541,3.19116l.33148,5.01709a3.0001,3.0001,0,0,0,2.99329,2.80231q.09877,0,.19818-.00659l13.54779-.89618c.2215-.01465.44208-.02179.66431-.02179,6.7929,0,13.89154,6.51782,14.33117,13.15826l2.87543,43.48364a15.276,15.276,0,0,1-13.13538,14.99537l-43.33258,2.86694-1.85046-27.96442,26.27515-1.73883a2.99986,2.99986,0,0,0,2.79534-3.19134l-.32061-4.84925a2.9999,2.9999,0,0,0-2.99329-2.80212q-.09888,0-.19824.00653l-13.54663.8963c-.22077.01465-.44092.02173-.66211.02173-6.71063,0-13.72772-6.523-14.16675-13.16943l-2.8985-43.8172c-.45465-6.88428,6.09589-14.36274,12.97962-14.81855l38.81768-2.56695m-73.95227,5.25183,10.11786,110.35736-27.90686,2.55817L510.19308,322.46564l27.90677-2.55707m-62.143,6.04236c6.64484,0,13.6441,5.93573,14.40228,12.21386l3.29553,27.29218c.62592,5.18164-2.63562,10.06238-5.89654,12.90216a3,3,0,0,0,.66247,4.96234c3.78153,1.83161,8.127,6.08368,8.73163,11.09174l4.82642,39.95654-27.99259,3.38092-4.44381-36.79474a2.99687,2.99687,0,0,0-3.33783-2.61859l-3.6612.4419a3.00009,3.00009,0,0,0-2.61889,3.33807l4.44391,36.79468-27.82554,3.36053L423.25333,332.23816l51.43939-6.21228a10.5549,10.5549,0,0,1,1.26272-.07495h.00144m-16.97681,46.35614a3.036,3.036,0,0,0,.36328-.02191l3.66108-.442a3.00007,3.00007,0,0,0,2.61883-3.33826L464.41681,358.52a3.0005,3.0005,0,0,0-2.97461-2.64038,3.03622,3.03622,0,0,0-.36331.02191l-3.6611.44189a3,3,0,0,0-2.61881,3.3382l1.20645,9.985a3.00058,3.00058,0,0,0,2.97464,2.64051m-58.093-37.08966,15.47277,95.48535a15.2782,15.2782,0,0,1-11.65963,16.16968l-36.89737,5.97863a10.65617,10.65617,0,0,1-1.69965.1344c-6.59961,0-13.28381-5.524-14.30417-11.82141l-15.47339-95.48523,27.66446-4.48285,12.76566,78.77423a2.99692,2.99692,0,0,0,3.44073,2.48157l3.14353-.50885a3,3,0,0,0,2.482-3.44134l-12.76574-78.77411,27.83078-4.51007M302.24777,352.293h-.00015c6.41556,0,13.1149,5.1333,14.33646,10.98511l16.91973,81.05218a15.14045,15.14045,0,0,1-10.91793,16.67792l-36.91645,7.70691a10.82048,10.82048,0,0,1-2.20782.22241c-6.37827,0-13.06372-5.222-14.30664-11.17523l-16.91971-81.0492c-1.40955-6.75354,4.03508-15.07135,10.78827-16.48156l36.91562-7.70563a11.32987,11.32987,0,0,1,2.30862-.23291m-6.18265,85.55933a3.001,3.001,0,0,0,.61368-.06348l3.61-.7544a2.99991,2.99991,0,0,0,2.32309-3.54962l-9.96717-47.74475a3,3,0,0,0-3.55053-2.32342l-3.60929.75445a3.00009,3.00009,0,0,0-2.3229,3.54956l9.96646,47.74463a3.00021,3.00021,0,0,0,2.93667,2.387m-73.23278-83.083,12.98932,49.76074-10.53531,2.75049a3.00007,3.00007,0,0,0-2.14492,3.66046l17.77628,68.09906-31.23879,8.15442L191.90326,419.0954a2.99964,2.99964,0,0,0-3.66046-2.145l-10.3539,2.70276-12.9893-49.76062,57.93274-15.12323M707.081,114.96838l-44.681,1.2201,4.19037,153.412,67.79083-1.85113-1.99566-73.07452-23.10968.63079L707.081,114.96838Zm-87.40216,3.13019q-.55572,0-1.11.0351l-49.00238,3.11755c-11.207.71338-21.49482,12.39917-20.78131,23.60626L557.118,275.82257l44.60742-2.83795-1.78955-28.12683,4.17524-.26526,1.78967,28.12677,44.827-2.85217-8.33307-130.9657c-.68988-10.83771-11.84619-20.80286-22.71588-20.80286Zm-22.5816,82.152-2.27942-35.81818,4.17542-.26532,2.27941,35.81739-4.17541.26611Zm-72.0849-75.94391-44.65372,4.89142,11.84473,108.13074-4.15836.45562L476.19962,129.65375l-44.43418,4.86773,14.26663,130.23859c1.17551,10.73071,12.03885,20.00818,22.63294,20.00818a17.61836,17.61836,0,0,0,1.92087-.10394l48.812-5.34638c11.16345-1.22278,21.12787-13.39026,19.88116-24.77264L525.01233,124.3067Zm-111.1658,12.49951-76.36591,11.91712,10.39008,66.57538,15.88229-2.47846,13.275,85.0686,44.38364-6.92663-13.275-85.0686,16.09991-2.512-10.39-66.57544Zm-113.163,18.98572a18.26484,18.26484,0,0,0-3.75351.38123l-70.46846,14.789,31.52336,150.203,43.74656-9.18146-10.80939-51.504,4.74066-.99506,10.80954,51.50464,43.9621-9.2265-11.66874-55.59888c-1.583-7.54254-8.29281-13.78375-15.14111-16.39655,5.17529-5.36071,8.89984-13.34185,7.27182-21.09991l-7.41772-35.342c-2.04871-9.762-12.73123-17.53351-22.79511-17.53351Zm-18.58087,62.66541-2.71374-12.93,4.74145-.99511,2.7131,12.93054-4.74081.99457ZM134.80389,171.67426,86.107,187.80078l28.77482,86.89038a70.42588,70.42588,0,0,1,3.38554,17.42108,70.84575,70.84575,0,0,1-7.921-15.91937L81.57153,189.30261,33.11353,205.35,61.88825,292.2403c10.435,31.50964,31.07046,51.42895,58.78873,68.73883l36.52264-12.09369c12.14617-30.51258,16.89309-58.57257,6.3789-90.32093l-28.77463-86.89025Zm69.23264,4.95141-43.21,11.43976,39.278,148.36072,43.20992-11.43891L204.03653,176.62567ZM695.10864,308.19025l-58.79211,2.22882,1.94372,51.25567,12.22748-.46362,2.48255,65.49365,34.171-1.29583-2.484-65.49238,12.39514-.47058-1.94373-51.25573Zm-80.261,3.27508-41.8111,2.76489c-8.52936.56476-16.3385,9.48017-15.77515,18.00971l2.89856,43.8175c.54437,8.2439,8.90009,15.97144,17.16016,15.97144.28741,0,.57348-.00928.86035-.02826l13.54645-.8963.32068,4.8493-29.26868,1.93689,2.24664,33.9513,46.32611-3.065c8.5307-.56341,16.50635-9.48974,15.93073-18.187l-2.87549-43.48346c-.54565-8.24322-9.056-15.96032-17.32465-15.96032-.28833,0-.57476.00934-.86212.02838l-13.54791.89618-.33148-5.01709,24.7522-1.63831-2.2453-33.94989Zm-74.03418,5.18207L506.9317,319.752l10.66556,116.33344,33.8818-3.1059L540.81342,316.6474Zm-64.858,6.30353a13.55163,13.55163,0,0,0-1.62262.09656l-54.41754,6.572L433.92407,445.6106l33.78229-4.0799-4.80365-39.77313,3.66119-.4419,4.80353,39.77308,33.94937-4.10035-5.18618-42.93487c-.70328-5.82465-5.38056-10.99982-10.40229-13.432,4.27765-3.72522,7.62839-9.53326,6.90476-15.52429l-3.29557-27.29212c-.96011-7.94989-9.34845-14.855-17.38211-14.85418ZM458.9838,369.30676l-1.20646-9.985,3.66111-.4419,1.20645,9.98487-3.6611.442Zm-55.61518-37.53064L369.61508,337.246l13.24564,81.73548-3.14356.50879-13.24554-81.73554-33.58719,5.44257L348.83771,441.644c1.27514,7.8703,9.42663,14.34149,17.26553,14.34149a13.61761,13.61761,0,0,0,2.17975-.173l36.89709-5.97864c8.438-1.36682,15.53589-11.00806,14.14118-19.61114l-15.95264-98.44654ZM302.2467,349.293a14.28977,14.28977,0,0,0-2.9208.29626l-36.91538,7.70557c-8.36772,1.74738-14.85862,11.66266-13.112,20.03119l16.91974,81.04938c1.58441,7.58856,9.60233,13.56213,17.24338,13.56213a13.79869,13.79869,0,0,0,2.82117-.28577L323.199,463.945c8.53147-1.78016,15.02228-11.6969,13.24155-20.2276l-16.91971-81.05219c-1.55014-7.42547-9.53314-13.37262-17.27411-13.37213Zm-6.18154,85.55926-9.96647-47.74462,3.60929-.75446,9.96719,47.74475-3.61.75433Zm-71.08782-83.7434-63.73817,16.63873,14.50473,55.566,13.25663-3.46051L207.53389,490.855l37.04428-9.66986-18.534-71.00183,13.43791-3.50824-14.50473-55.56616Z"/>
    <g>
      <path d="M21,219.16245l7.02966-16.3673,109.329-36.20544,30.03923,90.70968c10.909,32.94194,5.60286,62.51261-7.26223,94.85164l-8.45919,15.25013-39.3871,13.04447c-29.068-18.18695-50.736-38.82511-61.48684-71.28963ZM81.57156,189.3026,33.11349,205.35l28.77475,86.89032c10.435,31.50968,31.07045,51.429,58.78874,68.73884l36.52258-12.09371c12.14623-30.51256,16.89314-58.57254,6.379-90.32093l-28.77475-86.89032L86.107,187.80077l28.77475,86.89033a70.429,70.429,0,0,1,3.38559,17.421,70.84072,70.84072,0,0,1-7.92107-15.91921Z"/>
      <path d="M238.989,340.48153l-48.74452,12.90533-40.743-153.89545,7.01807-13.92973,50.02127-13.24294,41.08058,155.17289Zm4.32542-15.4943-39.278-148.36148L160.82658,188.0654l39.278,148.3608Z"/>
      <path d="M329.01256,228.6365c6.21191,3.87119,11.75407,9.90781,13.20133,16.80379l12.39176,59.04655-9.296,12.52612L247.2579,337.5911,214.55877,181.78529l7.73147-13.54712,73.91611-15.5134c12.49884-2.62308,28.00678,6.94714,30.72057,19.877l7.41705,35.342C335.83625,215.05528,333.14428,222.5951,329.01256,228.6365Zm1.88376-19.96909-7.41773-35.342C321.172,162.33454,307.92017,153.86649,296.93,156.1731l-70.46846,14.78909,31.52332,150.203,43.74661-9.18145-10.80945-51.504,4.74077-.99508,10.80946,51.50468,43.96214-9.22647-11.66881-55.59889c-1.583-7.54255-8.29278-13.78378-15.141-16.39663C328.79977,224.40656,332.52432,216.42547,330.89632,208.66741Zm-48.79362,9.78982-2.71379-12.92988,4.74146-.99507,2.7131,12.93056Z"/>
      <path d="M325.0302,158.91213l8.42645-13.127,83.3281-13.00354,11.4758,73.53759-9.9351,12.02483-4.56891.7134,11.67973,74.843-9.93578,12.02551-50.04037,7.80785-13.275-85.06795-15.88238,2.47849Zm83.10644,46.98147,16.09994-2.51191-10.39-66.57544-76.36595,11.91707,10.39,66.57544,15.88237-2.47848,13.275,85.06862,44.38363-6.92667Z"/>
      <path d="M418.86289,144.13054l9.01708-12.728,100.25057-10.98133,14.64995,133.74017c.93574,8.53694-3.65021,17.23552-16.16815,30.34682-4.28859,5.343-10.30134,9.103-16.64829,9.798L461.152,299.654c-12.69594,1.39-26.29626-9.52451-27.71078-22.43939Zm57.3367-14.47672-44.4341,4.86763,14.26665,130.23864c1.24675,11.38168,13.39025,21.12717,24.55368,19.9043l48.812-5.34642c11.16342-1.22287,21.12785-13.39025,19.8811-24.77261L525.01231,124.30672l-44.65372,4.89151,11.84478,108.13071-4.15833.45559Z"/>
      <path d="M643.47779,284.22789l-99.32233,6.31967-8.5158-133.822c-.40512-6.37287,2.2657-12.9408,6.587-17.84935,10.53187-14.79045,18.54569-20.59519,27.11605-21.14081l49.00233-3.11755c12.74437-.81093,26.72593,10.87493,27.56483,24.05989l8.55672,134.48085Zm-39.36664-39.63536,1.78964,28.12683,44.827-2.85224-8.333-130.96569c-.71341-11.20707-12.61888-21.48114-23.826-20.76774l-49.00232,3.11755c-11.20708.7134-21.49479,12.39926-20.78139,23.60634l8.333,130.965,44.60734-2.83792-1.78964-28.12682Zm-7.014-44.342-2.27934-35.818,4.17537-.26531,2.27934,35.81736Z"/>
      <path d="M726.617,281.83807l-73.5144,2.0072-4.34588-159.1341,10.02581-11.94845,51.725-1.41247,2.19341,80.33808,23.11119-.63156L738,271.17456Zm7.7642-14.08865-1.99561-73.07449-23.10983.63087L707.081,114.9684,662.4,116.18855l4.19038,153.41189Z"/>
    </g>
    <g>
      <path d="M151.55305,377.45152l6.02231-11.85091L227.12445,347.445l16.02151,61.377-7.39659,11.04748-3.81322.99576,16.30592,62.46692-7.39659,11.04748-41.76533,10.90153-18.5341-71.00181L167.29016,437.74Zm74.49107,32.73188,13.438-3.50835-14.50469-55.56616-63.73821,16.63874,14.50468,55.56616,13.25658-3.46061L207.53388,490.855l37.04434-9.66979Z"/>
      <path d="M329.08008,467.51191a19.68852,19.68852,0,0,1-11.9273,8.48306l-36.91543,7.70555c-9.51633,1.98743-20.62179-5.283-22.64263-14.96369L240.675,387.6874a19.2941,19.2941,0,0,1,3.03639-14.16163c6.33945-12.28195,11.752-17.51992,18.1508-18.8567l36.91611-7.70555c10.00808-2.08973,21.31269,5.31027,23.36764,15.15466l16.91974,81.0508C340.43584,449.73145,337.79912,456.78771,329.08008,467.51191Zm-9.5593-104.84675c-1.74667-8.36711-11.66267-14.85729-20.19484-13.07583l-36.91543,7.70555c-8.36779,1.74735-14.85865,11.66267-13.112,20.03115l16.91974,81.04944c1.78146,8.53217,11.69746,15.02371,20.06458,13.27635l36.91611-7.70691c8.53148-1.78009,15.02234-11.69678,13.24156-20.22758ZM299.67514,434.098l-3.61.75433-9.96647-47.74467,3.60929-.75432Z"/>
      <path d="M323.45267,351.00931l6.35514-10.0299,75.77873-12.27922,16.3823,101.09287c1.04555,6.45334-2.0986,13.245-11.10136,23.70455a19.46443,19.46443,0,0,1-12.27105,8.10112l-36.897,5.97866c-9.59613,1.555-20.3633-6.20918-21.94492-15.97036Zm43.0189-13.25452-33.58714,5.44258,15.95331,98.4466c1.39407,8.60446,11.00725,15.53659,19.44529,14.16844l36.897-5.97865c8.438-1.36679,15.5359-11.00793,14.14116-19.611l-15.95263-98.4466L369.615,337.246l13.24566,81.73556-3.14346.5088Z"/>
      <path d="M493.88866,380.11825c4.45637,3.346,8.2614,8.28937,8.90455,13.61464l5.50669,45.59764-7.87469,8.88546-75.71871,9.14462L410.17522,337.04275l6.75616-9.76391,57.08026-6.89394c9.65206-1.1649,20.78275,7.11492,21.98857,17.0998l3.29556,27.292C499.95939,370.26841,497.4202,375.8092,493.88866,380.11825Zm2.74448-15.021-3.29556-27.292c-1.02509-8.48716-10.51755-15.78349-19.0047-14.75772l-54.41763,6.572L433.9241,445.61064l33.7822-4.07989-4.80352-39.77312,3.66112-.442,4.80352,39.77313,33.94929-4.10035-5.18614-42.935c-.70317-5.82452-5.38051-10.99974-10.40228-13.43185C494.006,376.89635,497.35677,371.08821,496.63314,365.09727Zm-37.64929,4.20948-1.20651-9.98489,3.66112-.442,1.20651,9.98489Z"/>
      <path d="M546.26838,444.06107l-38.22083,3.5029L496.98233,326.89281l7.03376-9.56612,39.22273-3.59565,11.15524,121.67374Zm5.21069-11.08158-10.66555-116.3321L506.93175,319.752,517.5973,436.08544Z"/>
      <path d="M616.1312,351.19073c5.774,3.48107,10.54279,9.54975,10.952,15.73847l2.87543,43.48336c.431,6.52291-3.34057,12.98717-13.29,22.54783a19.45786,19.45786,0,0,1-12.98171,6.90621l-48.50172,3.2069-2.53305-38.29858,5.32118-5.89545c-4.25722-3.41423-7.44365-8.4094-7.79694-13.762l-2.89862-43.81891A19.29137,19.29137,0,0,1,552.258,327.699c7.98927-11.278,14.07841-15.71255,20.60133-16.145l44.4873-2.9409,2.59989,39.30116Zm.96166-5.77541-2.24523-33.95-41.811,2.76494c-8.52943.56472-16.33865,9.48018-15.7753,18.00962l2.89862,43.81755c.56336,8.5308,9.48973,16.5078,18.02054,15.94308l13.54643-.89619.32055,4.84922-29.26853,1.937,2.2466,33.95134,46.326-3.065c8.53081-.56335,16.50644-9.48973,15.93081-18.187l-2.87543-43.48335c-.56472-8.5308-9.65751-16.49689-18.187-15.93217l-13.5478.89619-.33146-5.017Z"/>
      <path d="M625.99878,317.01842l7.53641-9.17737,64.15288-2.43211,2.147,56.61512-8.57991,8.20888-3.5179.13368,2.18522,57.62043-8.57855,8.21024-38.525,1.46091L640.335,372.16445l-12.22739.46377Zm58.65847,42.89817,12.39517-.4706-1.94378-51.25574-58.79214,2.22887,1.94377,51.25574,12.2274-.46378,2.48258,65.49375,34.171-1.29585Z"/>
    </g>
    <g>
      <path class="cls-8" d="M66.98094,84.83233c0-1.11034-2.22068-2.71379-4.00964-2.71379a2.193,2.193,0,0,0-1.85034.92483c-1.789,2.22068-6.16826,7.52481-9.80688,7.52481-2.591,0-3.76274-1.85034-3.76274-4.749,0-9.37583,12.08962-29.29854,25.47441-29.29854a2.64013,2.64013,0,0,1,2.96068,2.96068c0,4.1324-4.68825,11.47239-8.94411,14.55652-.24689.18551-.30827.30827-.30827.49378,0,.74,1.66551,1.66552,2.8993,1.66552a1.48791,1.48791,0,0,0,.92483-.2469c6.6-4.87309,11.10272-12.08962,11.10272-17.20892,0-3.57792-2.22068-6.16826-7.52549-6.16826-12.70617,0-33.86267,18.81237-33.86267,35.28129,0,4.13309,1.9124,7.77171,6.97032,7.77171A14.27775,14.27775,0,0,0,57.112,91.12335a88.34,88.34,0,0,0-6.10687,17.82616,5.42418,5.42418,0,0,0-.12345.98689c0,2.09724,1.35723,4.19447,2.529,4.19447.49378,0,.92551-.37034,1.23378-1.29585A139.59616,139.59616,0,0,1,66.85749,85.202.87927.87927,0,0,0,66.98094,84.83233Z"/>
      <path class="cls-8" d="M163.80227,77.24545c2.59034,0,5.551-3.08413,5.551-5.86A3.03094,3.03094,0,0,0,166.26985,68.24c-3.02275,0-5.48964,3.57723-5.48964,5.73653A2.95293,2.95293,0,0,0,163.80227,77.24545Z"/>
      <path class="cls-8" d="M234.47875,79.71235c-.86344,0-3.76274,3.3924-10.671,8.32755-.47333.32908-.83438.60351-1.14521.85493a100.546,100.546,0,0,1-8.59688,5.55954c.49311-1.11034.92552-2.28206,1.35724-3.51585,1.17172-3.269,2.52828-6.04481,2.52828-6.96964,0-1.23379-2.09656-1.72758-3.269-1.72758a2.48479,2.48479,0,0,0-2.34345,1.17241l-2.1593,4.071c-1.29517,2.4669-5.67447,5.92137-7.34,5.92137-1.11034,0-1.48-.86413-1.48-1.789a3.53107,3.53107,0,0,1,.61655-2.09724c2.65241-.43172,7.83377-2.83723,7.83377-5.98274a2.09226,2.09226,0,0,0-2.34413-1.97379c-2.31736,0-6.56869,2.854-9.42392,6.30517a40.42207,40.42207,0,0,1-9.50848,5.16722c.80206-3.08413,3.08413-6.1062,3.08413-8.82067a2.76491,2.76491,0,0,0-2.529-2.46689c-2.34413,0-8.08,4.62619-12.6448,9.19032.9869-1.85034,3.02275-5.1193,3.6393-6.41447.43173-.86413.43173-.98689.43173-1.11034,0-1.049-1.91173-1.97379-3.70069-1.97379a2.83922,2.83922,0,0,0-2.59034,1.17173c-.698,1.15509-1.33788,2.2766-1.94122,3.36887-2.83834,2.1136-7.54067,5.50158-12.11946,7.05524.80207-3.08413,3.51585-8.0186,3.51585-9.56067,0-1.23379-2.09723-1.72689-3.26895-1.72689a2.68185,2.68185,0,0,0-2.34413,1.17172,21.97049,21.97049,0,0,0-1.64437,3.08507c-3.31764,2.46613-8.374,5.66287-12.4777,7.03077a41.25317,41.25317,0,0,1,3.269-8.45033H151.654c.92483,0,2.15862-1.72689,2.15862-2.71378,0-.43173-.24621-.67862-.74-.67862h-4.25585l2.22068-4.31792a6.68376,6.68376,0,0,0,.74-1.97379c0-1.04827-2.15862-1.54206-3.269-1.54206a2.60732,2.60732,0,0,0-2.34413,1.1724c-1.17172,2.09724-2.46689,4.3793-3.6393,6.66137h-4.811c-.80206,0-2.22068,1.72689-2.22068,2.71379,0,.43172.24689.67861.86345.67861h4.44136q-.39515.81153-.764,1.59808c-2.78472,2.11267-7.14919,5.29637-11.44494,6.97569a11.44625,11.44625,0,0,1-3.82413.80207,3.32475,3.32475,0,0,1-3.02274-1.23379c4.50274-.98689,9.931-3.51585,9.931-7.40205,0-2.40551-1.85034-3.76206-5.05792-3.76206a13.30948,13.30948,0,0,0-10.065,5.57916,47.3408,47.3408,0,0,1-10.16323,6.01667,11.44984,11.44984,0,0,1-3.82413.80207,3.324,3.324,0,0,1-3.02275-1.23379c4.50275-.98689,9.931-3.51585,9.931-7.40205,0-2.40551-1.85034-3.76206-5.05791-3.76206a13.31448,13.31448,0,0,0-10.03314,5.53082A51.23625,51.23625,0,0,1,83.32164,93.4061c0-1.851,2.83724-4.74964,2.83724-6.90826a2.06616,2.06616,0,0,0-1.48-1.97379c-.86345-.37034-1.72758-.74068-2.83724-1.11034a5.25621,5.25621,0,0,0,.30828-1.60413c0-1.66483-1.17241-2.71379-3.39241-2.71379a4.63234,4.63234,0,0,0-4.56481,4.56413,3.83193,3.83193,0,0,0,.92551,2.591,1.66929,1.66929,0,0,0,.43173.49311A103.01475,103.01475,0,0,1,65.681,95.07093a1.38275,1.38275,0,0,0-.43173,1.049c0,.92482.55517,1.91172,1.48,1.91172a1.50134,1.50134,0,0,0,.92551-.30828c3.88552-2.46689,6.35309-4.8724,10.73239-9.31377.61655.2469,1.41862.43173,2.28207.80207C79.99062,90.81507,77.832,93.52886,77.832,95.133c0,1.85034.86345,2.71379,2.40551,2.71379,2.51183,0,8.02508-3.00689,12.6708-5.99716.15414,4.2851,2.93434,5.99716,7.31057,5.99716,4.69874,0,9.39859-2.35257,14.89156-5.99588.15456,4.28408,2.93468,5.99588,7.31048,5.99588,4.81452,0,9.633-2.47414,15.30189-6.27184a12.4163,12.4163,0,0,0-.93429,3.55805c0,1.85034.86413,2.71379,2.40619,2.71379,3.31883,0,8.68852-2.5166,14.78824-6.43775a11.51782,11.51782,0,0,0-.97445,3.724c0,1.85034.86345,2.71379,2.40551,2.71379,3.22463,0,8.24009-2.44865,14.05753-6.21353a13.4446,13.4446,0,0,0-1.2927,4.30181c0,1.04827,2.15862,2.15861,3.2069,2.15861,1.72757,0,7.64894-6.5386,12.27445-9.622-.61655,1.66483-2.28207,4.8724-2.28207,6.66136,0,1.85034.86345,2.71379,2.40552,2.71379,2.72913,0,6.74218-1.75656,11.43555-4.57589a5.63478,5.63478,0,0,0-.08934.93659c0,2.65241,1.54206,3.82413,4.31723,3.82413,2.28207,0,5.92137-2.15862,8.69722-4.68758-.74,1.97379-1.41862,3.8862-1.91241,5.3662-4.99585,4.31791-9.2517,10.54755-9.2517,14.24824,0,1.789.86345,2.52895,2.34345,2.52895,2.77585,0,7.83377-6.41447,12.27445-15.482,6.31566-3.84954,12.79722-8.51341,17.9201-12.28929.10572-.07511.21246-.15661.31877-.23436l.08039-.05908.00222-.00341c.70973-.523,1.42919-1.093,2.15367-1.72349A13.83362,13.83362,0,0,1,232.505,89.273a11.34487,11.34487,0,0,1-.61655,4.00964,3.57019,3.57019,0,0,0-3.14619-1.66551c-1.97379,0-4.009,1.35655-4.009,3.20757,0,2.15862,1.97379,3.45379,4.99585,3.45379a7.37709,7.37709,0,0,0,7.52549-6.35308,16.89974,16.89974,0,0,0,.24622-3.08413C237.50082,84.27716,236.02082,79.71235,234.47875,79.71235ZM103.48784,84.64682a1.02023,1.02023,0,0,1,1.04895,1.11034c0,1.29517-1.48068,3.20757-5.18136,3.94757C99.78715,86.6206,101.57611,84.64682,103.48784,84.64682Zm22.202,0a1.02023,1.02023,0,0,1,1.049,1.11034c0,1.29517-1.48068,3.20757-5.18136,3.94757C121.9892,86.6206,123.77816,84.64682,125.68988,84.64682Z"/>
    </g>
    <path class="cls-8" d="M246.62157,133.42953c-2.34413,0-8.08066,4.62619-12.64479,9.19032.80206-2.03517,2.529-4.009,2.529-6.72343a2.7649,2.7649,0,0,0-2.529-2.46689c-2.34413,0-8.08,4.62619-12.64479,9.19032.98689-1.85034,3.02274-5.1193,3.82413-6.78481.24689-.49379.24689-.61655.24689-.74,0-1.049-1.91172-1.97379-3.70068-1.97379A2.83922,2.83922,0,0,0,219.112,134.293c-.67,1.10881-1.285,2.18548-1.86816,3.23716a12.25007,12.25007,0,0,1-6.82565,2.43731,7.90643,7.90643,0,0,1-1.23379-.06138,9.0591,9.0591,0,0,0,.43173-2.529c0-2.6524-1.35656-3.88619-3.33035-3.88619-1.60412,0-3.45447,1.11034-3.45447,3.88619a5.44735,5.44735,0,0,0,1.60345,3.88551c-1.2331,2.1593-2.96068,3.8862-5.30413,3.8862a2.4852,2.4852,0,0,1-2.40551-2.71379c0-2.65241,2.28207-4.87309,4.25585-5.79792,1.23379-.55517,1.7269-1.29585,1.7269-2.09723,0-.86345-.43173-1.29517-1.11034-1.29517-3.10741,0-7.69882,2.577-9.87235,6.46946a48.57877,48.57877,0,0,1-9.73868,5.37327c0-1.851,2.83724-4.74965,2.83724-6.90826a2.06689,2.06689,0,0,0-1.48068-1.97379c-.86345-.37034-1.7269-.74068-2.83724-1.11034a5.23586,5.23586,0,0,0,.30828-1.60413c0-1.66483-1.17173-2.71379-3.39241-2.71379a4.6322,4.6322,0,0,0-4.56413,4.56413,3.83193,3.83193,0,0,0,.92551,2.591l.02626.035a20.21774,20.21774,0,0,1-7.6104,1.69186,12.44342,12.44342,0,0,1-1.54207-.06139,39.08223,39.08223,0,0,1,2.34345-4.13308c8.20343-9.43722,14.80341-23.43857,14.80341-27.13925,0-1.29517-.74-3.14619-1.91172-3.14619-1.72758,0-9.56067,11.16479-17.57927,27.26337-7.09309,14.24824-11.10273,23.43857-12.76824,28.24959a3.49382,3.49382,0,0,0-.18483,1.11034c0,1.85034,1.35724,3.82413,2.46758,3.82413a1.13513,1.13513,0,0,0,.98689-.80138c2.96069-5.92137,6.78481-14.68065,9.86894-21.21857a17.21662,17.21662,0,0,0,1.78828.06207,23.1605,23.1605,0,0,0,12.387-3.68142c.7261.29865,1.51128.54366,2.47576.90557-.67862,1.60344-2.83724,4.31723-2.83724,5.92136,0,1.85034.86345,2.71379,2.40551,2.71379,2.31966,0,7.20111-2.56588,11.59371-5.31342l-.0006.00861c0,3.02274,2.03517,5.48964,6.22964,5.48964s8.51171-3.08413,10.91722-6.72275a8.78325,8.78325,0,0,0,2.22068.30828,13.99036,13.99036,0,0,0,4.90472-.92816,15.90459,15.90459,0,0,0-1.70055,5.24607c0,1.04828,2.15861,2.15862,3.20689,2.15862,1.72758,0,7.64894-6.5386,12.27445-9.622-.61655,1.66483-2.28206,4.8724-2.28206,6.66136,0,1.85034.86344,2.71379,2.40551,2.71379,1.66551,0,7.89515-6.29171,12.52134-9.37515-.61655,1.66483-2.28206,4.74895-2.28206,7.52481,0,1.85034.86345,2.40551,1.72689,2.40551,2.03586,0,4.56482-1.41862,4.87309-2.34413.36966-1.23311-.37034-1.97379,1.60345-5.98275,1.41862-2.83723,2.03585-4.19447,2.03585-5.86A2.76489,2.76489,0,0,0,246.62157,133.42953Z"/>
  </g>
</svg>
